<svg preserveAspectRatio="none" overflow="visible" style="display: block;" width="19.5" height="18" viewBox="0 0 19.5 18" fill="none" xmlns="http://www.w3.org/2000/svg">
<path id="Vector" d="M9.75 4.5H11.25M9.75 7.5H11.25M3.75 10.5H11.25M3.75 13.5H11.25M14.25 4.5H17.625C18.2463 4.5 18.75 5.00368 18.75 5.625V15C18.75 16.2426 17.7426 17.25 16.5 17.25M14.25 4.5V15C14.25 16.2426 15.2574 17.25 16.5 17.25M14.25 4.5V1.875C14.25 1.25368 13.7463 0.75 13.125 0.75H1.875C1.25368 0.75 0.75 1.25368 0.75 1.875V15C0.75 16.2426 1.75736 17.25 3 17.25H16.5M3.75 4.5H6.75V7.5H3.75V4.5Z" stroke="white" stroke-width="1.5" stroke-linecap="round" stroke-linejoin="round"/>
</svg>
